<svg xmlns="http://www.w3.org/2000/svg" viewBox="0 0 453.54 158.74"><defs><style>.cls-1{fill:none;}.cls-2{fill:#fff;}</style></defs><g id="레이어_2" data-name="레이어 2"><g id="레이어_1-2" data-name="레이어 1"><rect class="cls-1" width="453.54" height="158.74"/><path class="cls-2" d="M198.89,60.6c14.9,0,23.58,10.34,23.58,25,0,14.48-8.3,25-23.58,25-15.12,0-23.58-10.78-23.58-25s8.46-25,23.58-25Zm-18.41,25c0,12.23,6.87,20.58,18.41,20.58,11.72,0,18.41-8.1,18.41-20.58S210.33,65,198.89,65,180.48,73.39,180.48,85.62Z"/><path class="cls-2" d="M280.87,100.26c3.4,3.43,10.42,5.82,17.09,5.82,7.23,0,13.7-2.81,13.7-9.38,0-7.68-6.89-8.39-14.65-9.94-8.81-1.67-16-3.53-16-12.66s9.2-13.29,18.7-13.29c5.52,0,11.18,1.42,15.27,4.13l-1.62,3.59A27.66,27.66,0,0,0,299.61,65c-7.07,0-13.45,3-13.45,9.1s4.93,7.37,10.93,8.56c10.2,2,19.64,2.94,19.64,14.22,0,9.23-9.4,13.38-18.65,13.38-7.19,0-14.94-2.36-19-6.51Z"/><path class="cls-2" d="M349.85,61.86v4.21H336.19V89.68c0,4.75,1.25,8.46,3.55,11.14s5.93,4.42,10.38,4.92V110c-5.8-.39-10.57-2.22-13.9-5.63S331,96.1,331,89.68V66.07h-9.11V61.86H331V48h5.17V61.86Z"/><path class="cls-2" d="M377.4,60.6c14.9,0,23.57,10.34,23.57,25,0,14.48-8.29,25-23.58,25-15.11,0-23.57-10.78-23.57-25s8.46-25,23.57-25ZM359,85.62c0,12.23,6.86,20.58,18.41,20.58,11.72,0,18.41-8.1,18.41-20.58S388.83,65,377.4,65,359,73.39,359,85.62Z"/><path class="cls-2" d="M232.91,85.62c0-12.23,6.87-20.58,18.41-20.58s18.41,8,18.41,20.58c0,.12,0,24.49,0,24.61h5.17c0-.12,0-24.49,0-24.61,0-14.68-8.68-25-23.58-25h0c-15.12,0-23.58,10.81-23.58,25,0,.12,0,24.49,0,24.61h5.17C232.92,110.11,232.91,85.74,232.91,85.62Z"/><path class="cls-2" d="M411.56,85.62C411.56,73.39,418.42,65,430,65s18.41,8,18.41,20.58c0,.12,0,24.49,0,24.61h5.18V85.62c0-14.68-8.67-25-23.57-25h0c-15.12,0-23.58,10.81-23.58,25v24.61h5.18C411.57,110.11,411.56,85.74,411.56,85.62Z"/></g></g></svg>